<svg viewBox="0 -16 512 512" xmlns="http://www.w3.org/2000/svg"><path d="m38.441406 345.113281v-118.171875c0-119.601562 97.847656-219.382812 217.449219-219.441406 120.011719-.058594 217.667969 97.5625 217.667969 217.558594v120.0625c0 20.367187-9.5 39.652344-25.863282 51.777344-29.519531 21.875-87.757812 50.105468-191.695312 50.105468-103.140625 0-161.277344-27.800781-191.011719-49.601562-16.667969-12.222656-26.546875-31.621094-26.546875-52.289063zm0 0" fill="#eaeaea"/><path d="m175.34375 175.085938c0-100.664063 71.402344-147.847657 109.082031-165.738282-9.335937-1.222656-18.871093-1.851562-28.535156-1.847656-119.601563.058594-217.449219 99.839844-217.449219 219.441406v118.171875c0 20.667969 9.878906 40.066407 26.546875 52.289063 29.734375 21.800781 87.871094 49.601562 191.011719 49.601562 1.429688 0 2.851562-.003906 4.261719-.015625-79.203125-52.347656-84.917969-159.074219-84.917969-271.902343zm0 0" fill="#d8d7da"/><path d="m418.746094 274.265625c0 31.335937-16.910156 60.273437-44.292969 75.515625-27.007813 15.035156-66.433594 29.410156-118.453125 29.410156s-91.445312-14.375-118.453125-29.410156c-27.382813-15.238281-44.292969-44.179688-44.292969-75.515625v-57.824219c0-89.882812 72.863282-162.746094 162.746094-162.746094s162.75 72.863282 162.75 162.746094v57.824219zm0 0" fill="#72cef7"/><path d="m218.476562 58.042969c-71.796874 16.9375-125.222656 81.429687-125.222656 158.398437v57.824219c0 31.335937 16.910156 60.273437 44.289063 75.515625 16.484375 9.175781 37.605469 18.109375 63.378906 23.675781-23.175781-54.832031-25.578125-125.328125-25.578125-198.371093 0-52.34375 19.300781-90.222657 43.132812-117.042969zm0 0" fill="#53b8e5"/><path d="m256 340.320312c-107.175781 0-160.886719-61.007812-162.695312-63.097656 1.023437 30.191406 17.722656 57.800782 44.242187 72.558594 27.007813 15.035156 66.433594 29.410156 118.453125 29.410156s91.445312-14.375 118.453125-29.410156c26.519531-14.757812 43.21875-42.367188 44.242187-72.558594-1.808593 2.089844-55.519531 63.097656-162.695312 63.097656zm0 0" fill="#898890"/><path d="m69.382812 191.050781c0-8.816406-7.148437-15.964843-15.964843-15.964843h-11.140625c-19.128906 0-34.777344 15.652343-34.777344 34.777343 0 19.128907 15.648438 34.777344 34.777344 34.777344h11.140625c8.816406 0 15.964843-7.148437 15.964843-15.964844zm0 0" fill="#66d3d0"/><path d="m442.617188 191.050781c0-8.816406 7.148437-15.964843 15.964843-15.964843h11.140625c19.128906 0 34.777344 15.652343 34.777344 34.777343 0 19.128907-15.648438 34.777344-34.777344 34.777344h-11.140625c-8.816406 0-15.964843-7.148437-15.964843-15.964844zm0 0" fill="#7de2e2"/><path d="m42.125 400.644531c-15.636719 0-28.433594-12.792969-28.433594-28.429687v-31.476563c0-15.636719 12.796875-28.429687 28.433594-28.429687s28.433594 12.792968 28.433594 28.429687v31.476563c0 15.636718-12.796875 28.429687-28.433594 28.429687zm0 0" fill="#ffa5b5"/><path d="m81.148438 428.328125c-15.636719 0-28.429688-12.792969-28.429688-28.433594v-31.472656c0-15.640625 12.792969-28.433594 28.429688-28.433594 15.636718 0 28.433593 12.792969 28.433593 28.433594v31.472656c0 15.636719-12.796875 28.433594-28.433593 28.433594zm0 0" fill="#ff737d"/><path d="m120.171875 457.550781c-15.636719 0-28.429687-12.792969-28.429687-28.433593v-31.472657c0-15.636719 12.792968-28.433593 28.429687-28.433593s28.433594 12.792968 28.433594 28.433593v31.472657c0 15.640624-12.792969 28.433593-28.433594 28.433593zm0 0" fill="#ffa5b5"/><path d="m159.195312 472.496094c-15.636718 0-28.429687-12.792969-28.429687-28.429688v-31.476562c0-15.636719 12.792969-28.433594 28.429687-28.433594 15.640626 0 28.433594 12.796875 28.433594 28.433594v31.476562c0 15.636719-12.792968 28.429688-28.433594 28.429688zm0 0" fill="#ff737d"/><path d="m351.175781 403.148438c0 8.28125-6.71875 15-15 15-8.285156 0-15-6.71875-15-15 0-8.285157 6.714844-15 15-15 8.28125 0 15 6.714843 15 15zm0 0" fill="#7de2e2"/><path d="m401.738281 386.554688c0 8.285156-6.714843 15-15 15-8.28125 0-15-6.714844-15-15 0-8.28125 6.71875-15 15-15 8.285157 0 15 6.71875 15 15zm0 0" fill="#7de2e2"/><path d="m256 278.96875c-15.519531 0-28.101562-12.582031-28.101562-28.101562v-20.429688c0-4.238281 3.433593-7.671875 7.671874-7.671875h40.859376c4.234374 0 7.671874 3.433594 7.671874 7.671875v20.429688c-.003906 15.519531-12.582031 28.101562-28.101562 28.101562zm0 0" fill="#57565c"/><path d="m191.976562 250.867188c0-13.183594-13.417968-23.867188-29.972656-23.867188-16.554687 0-29.972656 10.683594-29.972656 23.867188 0 13.183593 13.417969 23.871093 29.972656 23.871093 16.554688 0 29.972656-10.6875 29.972656-23.871093zm0 0" fill="#ffa6bb"/><path d="m379.96875 250.867188c0-13.183594-13.417969-23.867188-29.972656-23.867188-16.554688 0-29.972656 10.683594-29.972656 23.867188 0 13.183593 13.417968 23.871093 29.972656 23.871093 16.554687 0 29.972656-10.6875 29.972656-23.871093zm0 0" fill="#ffa6bb"/><path d="m311.773438 125.8125c6.238281 6.238281 16.453124 6.238281 22.691406 0l30.367187-30.367188c-8.039062-7.234374-16.804687-13.675781-26.171875-19.210937l-26.886718 26.886719c-6.242188 6.238281-6.242188 16.449218 0 22.691406zm0 0" fill="#fff"/><path d="m263.71875 173.867188c-6.242188-6.238282-6.242188-16.453126 0-22.691407l5.292969-5.292969c6.238281-6.238281 16.449219-6.238281 22.691406 0 6.238281 6.238282 6.238281 16.453126 0 22.691407l-5.292969 5.292969c-6.242187 6.242187-16.453125 6.242187-22.691406 0zm0 0" fill="#fff"/><path d="m187.523438 331.28125c-61.664063-17.0625-92.847657-52.476562-94.222657-54.058594 1.027344 30.191406 17.722657 57.796875 44.242188 72.558594 16.484375 9.175781 37.605469 18.109375 63.378906 23.671875-5.582031-13.207031-9.972656-27.328125-13.398437-42.171875zm0 0" fill="#75747a"/><path d="m336.65625 210.316406c-4.140625 0-7.5 3.355469-7.5 7.5v12.449219c0 4.140625 3.359375 7.5 7.5 7.5 4.144531 0 7.5-3.359375 7.5-7.5v-12.449219c0-4.144531-3.355469-7.5-7.5-7.5zm0 0"/><path d="m175.34375 210.316406c-4.144531 0-7.5 3.355469-7.5 7.5v12.449219c0 4.140625 3.355469 7.5 7.5 7.5 4.140625 0 7.5-3.359375 7.5-7.5v-12.449219c0-4.144531-3.359375-7.5-7.5-7.5zm0 0"/><path d="m426.246094 216.441406c0-93.875-76.371094-170.246094-170.246094-170.246094s-170.246094 76.371094-170.246094 170.246094v57.824219c0 34.09375 18.445313 65.539063 48.144532 82.070313 36.1875 20.140624 77.265624 30.355468 122.101562 30.355468s85.914062-10.214844 122.101562-30.355468c29.699219-16.53125 48.144532-47.976563 48.144532-82.070313zm-72.5-120.515625-24.585938 24.582031c-1.601562 1.601563-7.035156 5.015626-12.082031 0-5.050781-5.015624-1.601563-10.484374 0-12.085937l22.65625-22.65625c4.863281 3.125 9.539063 6.523437 14.011719 10.160156zm17.0625 247.304688c-33.929688 18.882812-72.558594 28.460937-114.808594 28.460937s-80.878906-9.578125-114.808594-28.460937c-17.96875-10.003907-31.03125-26.511719-36.933594-45.671875 24.175782 19.449218 74.640626 50.261718 151.742188 50.261718 24.773438 0 48.769531-3.207031 71.332031-9.539062 3.988281-1.117188 6.3125-5.257812 5.195313-9.246094-1.121094-3.988281-5.257813-6.316406-9.25-5.195312-21.238282 5.960937-43.875 8.980468-67.277344 8.980468-94.171875 0-145.222656-48.074218-155.246094-58.574218v-57.804688c0-85.605468 69.640625-155.246094 155.246094-155.246094 25.273438 0 49.152344 6.074219 70.261719 16.832032l-19.789063 19.789062c-9.183594 9.179688-9.183594 24.117188 0 33.296875 4.433594 4.4375 18.78125 13.785157 33.296875 0l25.167969-25.167969c28.570312 28.171876 46.3125 67.296876 46.3125 110.496094v57.796875c-5.828125 6.074219-25.824219 25.101563-60.320312 39.867188-3.808594 1.628906-5.574219 6.039062-3.941407 9.847656 1.214844 2.84375 5.011719 5.976563 9.847657 3.941406 22.828124-9.605469 39.65625-21.195312 50.878906-30.234375-5.921875 19.117188-18.972656 35.585938-36.90625 45.570313zm0 0"/><path d="m512 209.863281c0-21.980469-16.867188-40.09375-38.339844-42.085937-12.214844-46.296875-39.421875-88.152344-77.074218-118.351563-39.746094-31.875-89.664063-49.425781-140.589844-49.425781-.03125 0-.074219 0-.109375 0-54.546875.0273438-107.324219 20.382812-148.605469 57.316406-3.085938 2.761719-3.351562 7.5-.589844 10.589844 2.765625 3.085938 7.503906 3.351562 10.589844.585938 38.53125-34.46875 87.757812-53.464844 138.613281-53.492188h.101563c47.519531 0 94.113281 16.378906 131.203125 46.128906 34.070312 27.324219 58.980469 64.855469 70.859375 106.46875-12.695313.28125-22.941406 10.6875-22.941406 23.453125v37.625c0 26.863281 30.941406 23.464844 30.941406 23.464844v92.980469c0 18.054687-8.535156 35.15625-22.828125 45.746094-29.941407 22.1875-86.726563 48.636718-187.230469 48.636718-21.300781 0-41.738281-1.234375-60.871094-3.644531v-23.269531c0-19.816406-16.117187-35.933594-35.933594-35.933594-3.140624 0-6.191406.40625-9.097656 1.167969-6.589844-9.949219-19.332031-17.457031-33.621094-15.925781-3.078124-16.710938-20.253906-30.859376-39.335937-29.183594-3.378906-14.753906-15.859375-26.078125-31.199219-27.707032v-52.867187s30.941406 3.1875 30.941406-23.464844v-37.625c0-12.574219-9.941406-22.867187-22.375-23.4375 8.320313-28.203125 22.636719-54.835937 41.773438-77.503906 2.671875-3.167969 2.273438-7.898437-.894531-10.570313-3.164063-2.671874-7.894531-2.273437-10.566407.894532-21.460937 25.417968-37.265624 55.496094-45.953124 87.300781-21.71875 1.746094-38.867188 19.964844-38.867188 42.128906 0 19.386719 13.117188 35.753907 30.941406 40.722657v56.011718c-14.351562 4.710938-24.746094 18.230469-24.746094 34.140625v31.476563c0 36.855468 38.609376 35.847656 39.9375 35.699218 5.785157 30.179688 37.5 27.847657 38.722657 27.722657 1.65625 8.824219 6.609375 16.878906 13.953125 22.332031 1.34375 1 6.699218 3.542969 10.492187-1.546875 2.476563-3.320313 1.777344-8.023437-1.546875-10.492187-5.332031-3.960938-8.511718-10.246094-8.511718-16.8125v-31.472657c0-11.542969 9.390624-20.933593 20.933593-20.933593 6.496094 0 12.488281 3.019531 16.402344 7.984374-8.113281 6.59375-13.3125 16.648438-13.3125 27.894532v31.476562c0 19.8125 16.121094 35.929688 35.933594 35.929688 17.472656 0 32.066406-12.539063 35.269531-29.09375 19.402344 2.386718 40.058594 3.601562 61.53125 3.601562 104.597656 0 164.40625-28.050781 196.160156-51.582031 18.097656-13.40625 28.898438-35.015625 28.898438-57.800781v-94.535156c17.824218-4.96875 30.941406-21.335938 30.941406-40.722657zm-497 0c0-15.039062 12.238281-27.277343 27.277344-27.277343h11.140625c4.667969 0 8.464843 3.796874 8.464843 8.464843v37.625c0 4.667969-3.796874 8.464844-8.464843 8.464844h-11.140625c-15.039063 0-27.277344-12.234375-27.277344-27.277344zm30.21875 158.558594v24.472656c-1.019531.15625-24.027344-.628906-24.027344-20.679687v-31.476563c0-11.542969 9.390625-20.929687 20.933594-20.929687 10.453125 0 19.117188 7.710937 20.660156 17.742187-10.511718 6.277344-17.566406 17.761719-17.566406 30.871094zm39.023438 29.222656v22.929688c-1.019532.152343-24.023438 2.003906-24.023438-20.679688v-31.472656c0-11.542969 9.386719-20.933594 20.929688-20.933594 10.953124 0 19.949218 8.457031 20.84375 19.179688-10.609376 6.253906-17.75 17.792969-17.75 30.976562zm95.886718 46.421875c0 11.539063-9.390625 20.929688-20.933594 20.929688-11.539062 0-20.929687-9.390625-20.929687-20.929688v-31.476562c0-11.542969 9.390625-20.933594 20.929687-20.933594 11.542969 0 20.933594 9.390625 20.933594 20.933594zm289.59375-206.925781h-11.140625c-4.667969 0-8.464843-3.796875-8.464843-8.460937v-37.628907c0-4.667969 3.796874-8.460937 8.464843-8.460937h11.140625c15.039063 0 27.277344 12.234375 27.277344 27.277344 0 15.039062-12.238281 27.273437-27.277344 27.273437zm0 0"/><path d="m276.429688 215.269531h-40.859376c-8.367187 0-15.171874 6.804688-15.171874 15.167969v20.429688c0 19.632812 15.96875 35.601562 35.601562 35.601562 19.628906 0 35.597656-15.96875 35.601562-35.601562v-20.429688c0-8.363281-6.804687-15.167969-15.171874-15.167969zm.171874 35.597657c0 11.359374-9.242187 20.601562-20.601562 20.601562s-20.601562-9.242188-20.601562-20.601562v-20.429688c0-.09375 41.03125-.171875 41.03125-.171875.09375.003906.171874 20.601563.171874 20.601563zm0 0"/><path d="m313.675781 403.148438c0 12.40625 10.089844 22.5 22.5 22.5 12.40625 0 22.5-10.09375 22.5-22.5 0-12.410157-10.09375-22.5-22.5-22.5-12.410156 0-22.5 10.089843-22.5 22.5zm30 0c0 4.132812-3.367187 7.5-7.5 7.5-4.136719 0-7.5-3.367188-7.5-7.5 0-4.136719 3.363281-7.5 7.5-7.5 4.132813 0 7.5 3.363281 7.5 7.5zm0 0"/><path d="m364.238281 386.554688c0 12.410156 10.09375 22.5 22.5 22.5 12.410157 0 22.5-10.089844 22.5-22.5 0-12.40625-10.089843-22.5-22.5-22.5-12.40625 0-22.5 10.09375-22.5 22.5zm30 0c0 4.136718-3.363281 7.5-7.5 7.5-4.132812 0-7.5-3.363282-7.5-7.5 0-4.132813 3.367188-7.5 7.5-7.5 4.136719 0 7.5 3.367187 7.5 7.5zm0 0"/><path d="m263.707031 140.578125-5.292969 5.292969c-9.179687 9.183594-9.179687 24.121094 0 33.300781 4.589844 4.589844 17.425782 13.453125 33.296876 0l5.292968-5.292969c9.183594-9.179687 9.183594-24.117187 0-33.300781-9.179687-9.179687-24.117187-9.179687-33.296875 0zm22.691407 22.695313-5.292969 5.292968c-3.332031 3.332032-8.753907 3.332032-12.085938 0-3.332031-3.332031-3.332031-8.753906 0-12.085937l5.292969-5.292969c4.828125-4.875 10.417969-1.667969 12.085938 0 3.332031 3.332031 3.332031 8.75 0 12.085938zm0 0"/><path d="m248.5 405.585938v23.222656c0 4.140625 3.359375 7.5 7.5 7.5s7.5-3.359375 7.5-7.5v-23.222656c0-4.144532-3.359375-7.5-7.5-7.5s-7.5 3.355468-7.5 7.5zm0 0"/><path d="m222.507812 411.390625v11.609375c0 4.144531 3.355469 7.5 7.5 7.5 4.140626 0 7.5-3.355469 7.5-7.5v-11.609375c0-4.144531-3.359374-7.5-7.5-7.5-4.144531 0-7.5 3.355469-7.5 7.5zm0 0"/><path d="m274.492188 411.390625v11.609375c0 4.144531 3.359374 7.5 7.5 7.5 4.144531 0 7.5-3.355469 7.5-7.5v-11.609375c0-4.144531-3.355469-7.5-7.5-7.5-4.140626 0-7.5 3.355469-7.5 7.5zm0 0"/></svg>