<svg xmlns="http://www.w3.org/2000/svg" xmlns:se="http://svg-edit.googlecode.com" xmlns:xlink="http://www.w3.org/1999/xlink" xmlns:dc="http://purl.org/dc/elements/1.1/" xmlns:cc="http://creativecommons.org/ns#" xmlns:rdf="http://www.w3.org/1999/02/22-rdf-syntax-ns#" xmlns:inkscape="http://www.inkscape.org/namespaces/inkscape" width="220" height="221">                                    <title>my vector image</title>                                    <!-- Created with Vector Paint - http://www.vectorpaint.yaks.com/ https://chrome.google.com/webstore/detail/hnbpdiengicdefcjecjbnjnoifekhgdo -->                                    <rect id="backgroundrect" width="100%" height="100%" x="0" y="0" fill="#FFFFFF" stroke="none"/>                                <g class="currentLayer" style=""><title>Layer 1</title><path fill="#ffffff" fill-opacity="1" stroke="#484848" stroke-opacity="1" stroke-width="10" stroke-dasharray="none" stroke-linejoin="round" stroke-linecap="butt" stroke-dashoffset="" fill-rule="nonzero" opacity="1" marker-start="" marker-mid="" marker-end="" d="M18.307698284007074,121.76922458060147 C18.307698284007074,69.92052433282998 59.496174454501784,27.923077132135063 110.34614503535954,27.923077132135063 C161.19611561621718,27.923077132135063 202.384591786712,69.92052433282998 202.384591786712,121.76922458060147 C202.384591786712,173.6179248283729 161.19611561621718,215.61537202906788 110.34614503535954,215.61537202906788 C59.496174454501784,215.61537202906788 18.307698284007074,173.6179248283729 18.307698284007074,121.76922458060147 z" id="svg_8" class=""/><path fill="#484848" fill-opacity="1" stroke="#484848" stroke-opacity="1" stroke-width="10" stroke-dasharray="none" stroke-linejoin="round" stroke-linecap="butt" stroke-dashoffset="" fill-rule="nonzero" opacity="1" marker-start="" marker-mid="" marker-end="" d="M84.84616629728623,119.46153397798656 C84.84616629728623,105.64938168950849 96.08564154501858,94.46153833584125 109.96153691258934,94.46153833584125 C123.8374322801601,94.46153833584125 135.0769075278924,105.64938168950849 135.0769075278924,119.46153397798656 C135.0769075278924,133.27368626646464 123.8374322801601,144.4615296201319 109.96153691258934,144.4615296201319 C96.08564154501858,144.4615296201319 84.84616629728623,133.27368626646464 84.84616629728623,119.46153397798656 z" class="" id="svg_2"/><path fill="#ff7a7a" fill-opacity="1" stroke="#484848" stroke-opacity="1" stroke-width="10" stroke-dasharray="none" stroke-linejoin="round" stroke-linecap="butt" stroke-dashoffset="" fill-rule="nonzero" opacity="1" marker-start="" marker-mid="" marker-end="" d="M85.0000067949295,30.38461673259735 C85.0000067949295,16.35996653822903 96.42882135362254,4.9999998807907104 110.53846895694733,4.9999998807907104 C124.64811656027211,4.9999998807907104 136.07693111896515,16.35996653822903 136.07693111896515,30.38461673259735 C136.07693111896515,44.40926692696567 124.64811656027211,55.76923358440399 110.53846895694733,55.76923358440399 C96.42882135362254,55.76923358440399 85.0000067949295,44.40926692696567 85.0000067949295,30.38461673259735 z" id="svg_3" class=""/><path fill="#ffc400" fill-opacity="1" stroke="#484848" stroke-opacity="1" stroke-width="10" stroke-dasharray="none" stroke-linejoin="round" stroke-linecap="butt" stroke-dashoffset="" fill-rule="nonzero" opacity="1" marker-start="" marker-mid="" marker-end="" d="M4.999999761581421,165.38462382555008 C4.999999761581421,151.3599736311818 16.428814320274455,140.00000697374344 30.538461923599243,140.00000697374344 C44.64810952692403,140.00000697374344 56.076924085617065,151.3599736311818 56.076924085617065,165.38462382555008 C56.076924085617065,179.40927401991837 44.64810952692403,190.76924067735672 30.538461923599243,190.76924067735672 C16.428814320274455,190.76924067735672 4.999999761581421,179.40927401991837 4.999999761581421,165.38462382555008 z" class="" id="svg_7"/><path fill="#01cbd6" fill-opacity="1" stroke="#484848" stroke-opacity="1" stroke-width="10" stroke-dasharray="none" stroke-linejoin="round" stroke-linecap="butt" stroke-dashoffset="" fill-rule="nonzero" opacity="1" marker-start="" marker-mid="" marker-end="" d="M164.23077869415283,165.0000035762787 C164.23077869415283,150.9753533819104 175.65959325284587,139.61538672447205 189.76924085617065,139.61538672447205 C203.87888845949544,139.61538672447205 215.30770301818848,150.9753533819104 215.30770301818848,165.0000035762787 C215.30770301818848,179.02465377064698 203.87888845949544,190.38462042808533 189.76924085617065,190.38462042808533 C175.65959325284587,190.38462042808533 164.23077869415283,179.02465377064698 164.23077869415283,165.0000035762787 z" class="" id="svg_6"/></g></svg>