<svg viewBox="0 0 512 512" xmlns="http://www.w3.org/2000/svg"><path d="m504.5 256c0 137.242188-111.257812 248.5-248.5 248.5s-248.5-111.257812-248.5-248.5 111.257812-248.5 248.5-248.5 248.5 111.257812 248.5 248.5zm0 0" fill="#ce9bea"/><path d="m141.1875 256c0-114.085938 76.902344-210.207031 181.675781-239.402344-21.265625-5.925781-43.703125-9.097656-66.863281-9.097656-137.242188 0-248.5 111.257812-248.5 248.5s111.257812 248.5 248.5 248.5c23.160156 0 45.597656-3.171875 66.863281-9.097656-104.773437-29.195313-181.675781-125.316406-181.675781-239.402344zm0 0" fill="#bd86e0"/><path d="m256 73.742188c0-15.660157-12.8125-28.472657-28.476562-28.472657h-103.25c-24.300782 15.21875-45.785157 34.515625-63.480469 56.949219h166.730469c15.664062 0 28.476562-12.8125 28.476562-28.476562zm0 0" fill="#a3e5e3"/><path d="m246.710938 52.746094c-5.070313-4.636719-11.816407-7.476563-19.1875-7.476563h-103.25c-24.300782 15.21875-45.785157 34.515625-63.480469 56.949219h133.695312c14.910157-18.902344 32.507813-35.582031 52.222657-49.472656zm0 0" fill="#82d1cd"/><g fill="#a3e5e3"><path d="m349.207031 343.320312c0 15.660157 12.816407 28.476563 28.476563 28.476563h98.222656c9.402344-17.816406 16.695312-36.90625 21.566406-56.949219h-119.789062c-15.660156 0-28.476563 12.8125-28.476563 28.472656zm0 0"/><path d="m441.480469 150.65625c-15.660157 0-28.472657 12.8125-28.472657 28.472656s12.8125 28.476563 28.472657 28.476563h58.292969c-3.933594-19.945313-10.261719-39.03125-18.660157-56.949219zm0 0"/><path d="m145.144531 391.839844c0-28.613282-25.820312-28.476563-25.820312-28.476563h-15.457031c-13.863282 0-25.207032-11.34375-25.207032-25.207031s11.34375-25.207031 25.207032-25.207031h91.871093c15.660157 0 28.476563-12.8125 28.476563-28.472657 0-15.664062-12.816406-28.476562-28.476563-28.476562h-188.238281c0 63 23.457031 120.511719 62.097656 164.3125h47.074219c15.660156 0 28.472656-12.8125 28.472656-28.472656zm0 0"/></g><path d="m7.5 256c0 63 23.457031 120.511719 62.097656 164.3125h47.074219c15.660156 0 28.472656-12.8125 28.472656-28.472656 0-28.613282-25.820312-28.476563-25.820312-28.476563h-15.457031c-13.863282 0-25.207032-11.34375-25.207032-25.207031s11.34375-25.207031 25.207032-25.207031h43.875c-4.289063-18.289063-6.558594-37.351563-6.558594-56.949219zm0 0" fill="#82d1cd"/><path d="m256 219.683594c-15.519531 0-28.101562-12.582032-28.101562-28.101563v-20.429687c0-4.238282 3.433593-7.671875 7.671874-7.671875h40.859376c4.234374 0 7.671874 3.433593 7.671874 7.671875v20.429687c-.003906 15.519531-12.582031 28.101563-28.101562 28.101563zm0 0" fill="#57565c"/><path d="m191.976562 191.582031c0-13.179687-13.417968-23.867187-29.972656-23.867187-16.554687 0-29.972656 10.6875-29.972656 23.867187 0 13.183594 13.417969 23.871094 29.972656 23.871094 16.554688 0 29.972656-10.6875 29.972656-23.871094zm0 0" fill="#ffd4e2"/><path d="m379.96875 191.582031c0-13.179687-13.417969-23.867187-29.972656-23.867187-16.554688 0-29.972656 10.6875-29.972656 23.867187 0 13.183594 13.417968 23.871094 29.972656 23.871094 16.554687 0 29.972656-10.6875 29.972656-23.871094zm0 0" fill="#ffd4e2"/><path d="m306.480469 417.308594c0 16.640625-13.492188 30.128906-30.132813 30.128906s-30.132812-13.488281-30.132812-30.128906c0-16.644532 13.492187-30.132813 30.132812-30.132813s30.132813 13.488281 30.132813 30.132813zm0 0" fill="#a3e5e3"/><path d="m344.15625 158.527344c0-4.140625-3.355469-7.5-7.5-7.5-4.140625 0-7.5 3.359375-7.5 7.5v12.453125c0 4.140625 3.359375 7.5 7.5 7.5 4.144531 0 7.5-3.359375 7.5-7.5zm0 0"/><path d="m167.84375 158.527344v12.453125c0 4.140625 3.355469 7.5 7.5 7.5 4.140625 0 7.5-3.359375 7.5-7.5v-12.453125c0-4.140625-3.359375-7.5-7.5-7.5-4.144531 0-7.5 3.359375-7.5 7.5zm0 0"/><path d="m437.019531 74.980469c-48.351562-48.351563-112.640625-74.980469-181.019531-74.980469s-132.667969 26.628906-181.019531 74.980469c-48.351563 48.351562-74.980469 112.640625-74.980469 181.019531s26.628906 132.667969 74.980469 181.019531c48.351562 48.351563 112.640625 74.980469 181.019531 74.980469 50.171875 0 98.753906-14.511719 140.496094-41.964844 3.460937-2.273437 4.417968-6.925781 2.144531-10.386718-2.277344-3.460938-6.929687-4.421876-10.386719-2.144532-39.289062 25.839844-85.019531 39.496094-132.253906 39.496094-63.703125 0-123.625-24.5625-168.976562-69.1875h29.648437c19.835937 0 35.972656-16.136719 35.972656-35.972656 0-11.015625-3.265625-19.851563-9.714843-26.265625-9.558594-9.511719-22.238282-9.683594-23.605469-9.710938h-15.457031c-9.761719 0-17.707032-7.941406-17.707032-17.707031 0-9.761719 7.945313-17.707031 17.707032-17.707031h91.871093c19.839844 0 35.976563-16.136719 35.976563-35.972657 0-19.835937-16.136719-35.976562-35.976563-35.976562h-130.457031c-4.140625 0-7.5 3.359375-7.5 7.5s3.359375 7.5 7.5 7.5h130.457031c11.566407 0 20.976563 9.410156 20.976563 20.976562 0 11.5625-9.410156 20.972657-20.976563 20.972657h-91.871093c-18.035157 0-32.707032 14.671875-32.707032 32.707031s14.671875 32.707031 32.707032 32.707031h15.496093c.09375 0 7.8125.199219 12.988281 5.34375 3.511719 3.496094 5.292969 8.753907 5.292969 15.632813 0 11.5625-9.410156 20.972656-20.976562 20.972656h-43.6875c-35.898438-41.765625-56.171875-93.9375-57.851563-149.3125h21.640625c4.144531 0 7.5-3.359375 7.5-7.5s-3.355469-7.5-7.5-7.5h-21.640625c1.542969-50.816406 18.75-98.929688 49.3125-138.78125h163.082032c19.839843 0 35.976562-16.140625 35.976562-35.976562 0-19.835938-16.136719-35.972657-35.976562-35.972657h-74.066407c31.671875-14.90625 66.5-22.769531 102.542969-22.769531 64.375 0 124.894531 25.066406 170.414062 70.585938 17.238282 17.238281 31.535157 36.632812 42.65625 57.570312h-27.589843c-19.835938 0-35.972657 16.136719-35.972657 35.972656 0 19.839844 16.136719 35.976563 35.972657 35.976563h26.738281c4.144531 0 7.5-3.359375 7.5-7.5s-3.355469-7.5-7.5-7.5h-26.738281c-11.566407 0-20.972657-9.410157-20.972657-20.976563 0-11.5625 9.40625-20.972656 20.972657-20.972656h34.902343c13.511719 30.402344 20.617188 63.574219 20.617188 97.84375 0 17.4375-1.886719 34.636719-5.523438 51.347656h-113.792968c-19.835938 0-35.976563 16.136719-35.976563 35.972656 0 19.835938 16.140625 35.976563 35.976563 35.976563h85.40625c-13.484375 22.632813-30.742188 43.164063-51.355469 60.632813-3.160156 2.679687-3.550781 7.414062-.871094 10.570312 2.679688 3.160156 7.40625 3.550781 10.570313.871094 57.554687-48.78125 90.566406-119.992188 90.566406-195.371094 0-68.378906-26.628906-132.667969-74.980469-181.019531zm-209.496093-22.210938c11.566406 0 20.976562 9.410157 20.976562 20.972657 0 11.566406-9.410156 20.976562-20.976562 20.976562h-150.605469c2.804687-3.105469 19.6875-22.523438 49.417969-41.949219zm150.160156 311.527344c-11.566406 0-20.976563-9.410156-20.976563-20.976563 0-11.5625 9.410157-20.972656 20.976563-20.972656h110.015625c-4.140625 14.484375-9.628907 28.527344-16.382813 41.949219zm0 0"/><path d="m291.601562 191.582031v-20.429687c0-8.363282-6.804687-15.171875-15.171874-15.171875h-40.859376c-8.367187 0-15.171874 6.808593-15.171874 15.171875v20.429687c0 19.632813 15.972656 35.601563 35.601562 35.601563s35.601562-15.96875 35.601562-35.601563zm-56.203124 0v-20.429687c0-.09375 41.203124-.09375 41.203124 0v20.429687c-.003906 11.359375-9.242187 20.601563-20.601562 20.601563s-20.601562-9.242188-20.601562-20.601563zm0 0"/><path d="m276.347656 454.9375c20.75 0 37.632813-16.878906 37.632813-37.628906s-16.882813-37.632813-37.632813-37.632813-37.628906 16.882813-37.628906 37.632813 16.878906 37.628906 37.628906 37.628906zm0-60.261719c12.480469 0 22.632813 10.152344 22.632813 22.632813 0 12.476562-10.152344 22.628906-22.632813 22.628906-12.476562 0-22.628906-10.152344-22.628906-22.628906 0-12.480469 10.148438-22.632813 22.628906-22.632813zm0 0"/></svg>